<svg id="Layer_1" data-name="Layer 1" xmlns="http://www.w3.org/2000/svg" viewBox="0 0 827.8 248.5"><title>floor-2</title><rect id="_20ოთახი" data-name="20ოთახი" x="103.2" y="177.2" width="159.1" height="54.2" style="fill:#464646"/><polygon id="_16ოთახი" data-name="16ოთახი" points="815.2 127.7 815.2 178.2 711.7 178.2 711.7 176.9 562.1 176.9 562.1 178.2 561.4 178.2 561.4 177.1 394.7 177.1 394.7 231.4 393.7 231.4 393.7 180.6 296 180.6 296 231.4 263.2 231.4 263.2 177.2 104.4 177.2 104.4 178.2 103.8 178.2 103.8 127.7 815.2 127.7" style="fill:#464646"/><rect x="103.8" y="178.2" width="0.5" height="53.2" style="fill:#464646"/><rect x="561.4" y="178.2" width="0.7" height="53.2" style="fill:#464646"/><rect id="_15ოთახი" data-name="15ოთახი" x="763.6" y="10.7" width="51.7" height="117" style="fill:#464646"/><rect id="_14ოთახი" data-name="14ოთახი" x="712.8" y="10.7" width="50.8" height="117" style="fill:#464646"/><rect id="_13ოთახი" data-name="13ოთახი" x="662.5" y="10.7" width="50.4" height="117" style="fill:#464646"/><rect id="_12ოთახი" data-name="12ოთახი" x="611.9" y="10.7" width="50.5" height="117" style="fill:#464646"/><rect id="_11ოთახი" data-name="11ოთახი" x="561.5" y="10.7" width="50.5" height="117" style="fill:#464646"/><rect id="_10ოთახი" data-name="10ოთახი" x="510.7" y="10.7" width="50.8" height="117" style="fill:#464646"/><rect id="_9ოთახი" data-name="9ოთახი" x="460.6" y="10.7" width="50.1" height="117" style="fill:#464646"/><rect id="_8ოთახი" data-name="8ოთახი" x="410.8" y="10.7" width="49.8" height="117" style="fill:#464646"/><rect id="_7ოთახი" data-name="7ოთახი" x="362.3" y="10.7" width="48.5" height="117" style="fill:#464646"/><rect id="_6ოთახი" data-name="6ოთახი" x="313.9" y="10.7" width="48.4" height="117" style="fill:#464646"/><rect id="_5_ოთახი" data-name="5 ოთახი" x="261.7" y="10.7" width="52.2" height="117" style="fill:#464646"/><rect id="_4ოთახი" data-name="4ოთახი" x="208.9" y="10.7" width="52.8" height="117" style="fill:#464646"/><rect id="_3ოთახი" data-name="3ოთახი" x="155.7" y="10.7" width="53.2" height="117" style="fill:#464646"/><rect id="_2ოთახი" data-name="2ოთახი" x="103.8" y="10.7" width="51.9" height="117" style="fill:#464646"/><rect x="711.7" y="178.2" width="103.6" height="53.2" style="fill:#464646"/><rect id="_19ოთახი" data-name="19ოთახი" x="394" y="177.1" width="167" height="54.3" style="fill:#464646"/><rect id="_18ოთახი" data-name="18ოთახი" x="561.7" y="176.9" width="149.8" height="54.5" style="fill:#464646"/><rect id="_17ოთახი" data-name="17ოთახი" x="712.5" y="178.3" width="51.5" height="53.2" style="fill:#464646"/><rect id="_21ოთახი" data-name="21ოთახი" x="13.1" y="178.7" width="54.8" height="53.1" style="fill:#464646"/><line x1="296.1" y1="180.9" x2="296.1" y2="203.4" style="fill:none;stroke:#fff;stroke-miterlimit:10;stroke-width:0.5px"/><line x1="298.9" y1="180.9" x2="298.9" y2="203.4" style="fill:none;stroke:#fff;stroke-miterlimit:10;stroke-width:0.5px"/><line x1="301.7" y1="180.9" x2="301.7" y2="203.4" style="fill:none;stroke:#fff;stroke-miterlimit:10;stroke-width:0.5px"/><line x1="304.5" y1="180.9" x2="304.5" y2="203.4" style="fill:none;stroke:#fff;stroke-miterlimit:10;stroke-width:0.5px"/><line x1="307.3" y1="180.9" x2="307.3" y2="203.4" style="fill:none;stroke:#fff;stroke-miterlimit:10;stroke-width:0.5px"/><line x1="310" y1="180.9" x2="310" y2="203.4" style="fill:none;stroke:#fff;stroke-miterlimit:10;stroke-width:0.5px"/><line x1="312.8" y1="180.9" x2="312.8" y2="203.4" style="fill:none;stroke:#fff;stroke-miterlimit:10;stroke-width:0.5px"/><line x1="315.6" y1="180.9" x2="315.6" y2="203.4" style="fill:none;stroke:#fff;stroke-miterlimit:10;stroke-width:0.5px"/><line x1="318.4" y1="180.9" x2="318.4" y2="203.4" style="fill:none;stroke:#fff;stroke-miterlimit:10;stroke-width:0.5px"/><line x1="321.2" y1="180.9" x2="321.2" y2="203.4" style="fill:none;stroke:#fff;stroke-miterlimit:10;stroke-width:0.5px"/><line x1="332.2" y1="180.9" x2="332.2" y2="203.4" style="fill:none;stroke:#fff;stroke-miterlimit:10;stroke-width:0.5px"/><line x1="335" y1="180.9" x2="335" y2="203.4" style="fill:none;stroke:#fff;stroke-miterlimit:10;stroke-width:0.5px"/><line x1="337.8" y1="180.9" x2="337.8" y2="203.4" style="fill:none;stroke:#fff;stroke-miterlimit:10;stroke-width:0.5px"/><line x1="340.6" y1="180.9" x2="340.6" y2="203.4" style="fill:none;stroke:#fff;stroke-miterlimit:10;stroke-width:0.5px"/><line x1="343.3" y1="180.9" x2="343.3" y2="203.4" style="fill:none;stroke:#fff;stroke-miterlimit:10;stroke-width:0.5px"/><line x1="346.1" y1="180.9" x2="346.1" y2="203.4" style="fill:none;stroke:#fff;stroke-miterlimit:10;stroke-width:0.5px"/><line x1="348.9" y1="180.9" x2="348.9" y2="203.4" style="fill:none;stroke:#fff;stroke-miterlimit:10;stroke-width:0.5px"/><line x1="351.7" y1="180.9" x2="351.7" y2="203.4" style="fill:none;stroke:#fff;stroke-miterlimit:10;stroke-width:0.5px"/><line x1="354.5" y1="180.9" x2="354.5" y2="203.4" style="fill:none;stroke:#fff;stroke-miterlimit:10;stroke-width:0.5px"/><line x1="357.3" y1="180.9" x2="357.3" y2="203.4" style="fill:none;stroke:#fff;stroke-miterlimit:10;stroke-width:0.5px"/><line x1="368" y1="180.9" x2="368" y2="203.4" style="fill:none;stroke:#fff;stroke-miterlimit:10;stroke-width:0.5px"/><line x1="370.8" y1="180.9" x2="370.8" y2="203.4" style="fill:none;stroke:#fff;stroke-miterlimit:10;stroke-width:0.5px"/><line x1="373.6" y1="180.9" x2="373.6" y2="203.4" style="fill:none;stroke:#fff;stroke-miterlimit:10;stroke-width:0.5px"/><rect x="376.1" y="180.9" width="0.5" height="0.7" style="fill:#fff"/><rect x="376.1" y="183" width="0.5" height="2.6" style="fill:#fff"/><rect x="376.1" y="187" width="0.5" height="3" style="fill:#fff"/><rect x="376.1" y="191.3" width="0.5" height="2.8" style="fill:#fff"/><rect x="376.1" y="195.5" width="0.5" height="2.8" style="fill:#fff"/><rect x="376.1" y="199.7" width="0.5" height="3.7" style="fill:#fff"/><rect x="378.9" y="180.9" width="0.5" height="0.7" style="fill:#fff"/><rect x="378.9" y="183" width="0.5" height="2.6" style="fill:#fff"/><rect x="378.9" y="187" width="0.5" height="3" style="fill:#fff"/><rect x="378.9" y="191.3" width="0.5" height="2.8" style="fill:#fff"/><rect x="378.9" y="195.5" width="0.5" height="2.8" style="fill:#fff"/><rect x="378.9" y="199.7" width="0.5" height="3.7" style="fill:#fff"/><rect x="381.7" y="180.9" width="0.5" height="0.7" style="fill:#fff"/><rect x="381.7" y="183" width="0.5" height="2.6" style="fill:#fff"/><rect x="381.7" y="187" width="0.5" height="3" style="fill:#fff"/><rect x="381.7" y="191.3" width="0.5" height="2.8" style="fill:#fff"/><rect x="381.7" y="195.5" width="0.5" height="2.8" style="fill:#fff"/><rect x="381.7" y="199.7" width="0.5" height="3.7" style="fill:#fff"/><rect x="384.5" y="180.9" width="0.5" height="0.7" style="fill:#fff"/><rect x="384.5" y="183" width="0.5" height="2.6" style="fill:#fff"/><rect x="384.5" y="187" width="0.5" height="3" style="fill:#fff"/><rect x="384.5" y="191.3" width="0.5" height="2.8" style="fill:#fff"/><rect x="384.5" y="195.5" width="0.5" height="2.8" style="fill:#fff"/><rect x="384.5" y="199.7" width="0.5" height="3.7" style="fill:#fff"/><rect x="387.3" y="180.9" width="0.5" height="0.7" style="fill:#fff"/><rect x="387.3" y="183" width="0.5" height="2.6" style="fill:#fff"/><rect x="387.3" y="187" width="0.5" height="3" style="fill:#fff"/><rect x="387.3" y="191.3" width="0.5" height="2.8" style="fill:#fff"/><rect x="387.3" y="195.5" width="0.5" height="2.8" style="fill:#fff"/><rect x="387.3" y="199.7" width="0.5" height="3.7" style="fill:#fff"/><rect x="390.1" y="180.9" width="0.5" height="0.7" style="fill:#fff"/><rect x="390.1" y="183" width="0.5" height="2.6" style="fill:#fff"/><rect x="390.1" y="187" width="0.5" height="3" style="fill:#fff"/><rect x="390.1" y="191.3" width="0.5" height="2.8" style="fill:#fff"/><rect x="390.1" y="195.5" width="0.5" height="2.8" style="fill:#fff"/><rect x="390.1" y="199.7" width="0.5" height="3.7" style="fill:#fff"/><rect x="815.5" y="177.1" width="2" height="23.9" style="fill:#fff"/><rect x="11.6" y="106" width="2" height="18.7" style="fill:#fff"/><rect x="11.6" y="138.9" width="2" height="27.6" style="fill:#fff"/><rect x="11.6" y="180.9" width="2" height="27.4" style="fill:#fff"/><rect x="69.3" y="177.09" width="23.2" height="2" style="fill:#fff"/><rect x="765.5" y="180.6" width="16.4" height="0.5" style="fill:#fff"/><rect x="795.4" y="180.6" width="16.5" height="0.5" style="fill:#fff"/><rect x="765.5" y="183.2" width="16.4" height="0.5" style="fill:#fff"/><rect x="795.4" y="183.2" width="16.5" height="0.5" style="fill:#fff"/><rect x="765.5" y="185.8" width="16.4" height="0.5" style="fill:#fff"/><rect x="795.4" y="185.8" width="16.5" height="0.5" style="fill:#fff"/><rect x="765.5" y="188.4" width="16.4" height="0.5" style="fill:#fff"/><rect x="795.4" y="188.4" width="16.5" height="0.5" style="fill:#fff"/><rect x="765.5" y="191.1" width="16.4" height="0.5" style="fill:#fff"/><rect x="795.4" y="191.1" width="16.5" height="0.5" style="fill:#fff"/><rect x="765.5" y="194" width="16.4" height="0.5" style="fill:#fff"/><rect x="795.4" y="194" width="16.5" height="0.5" style="fill:#fff"/><rect x="765.5" y="196.6" width="16.4" height="0.5" style="fill:#fff"/><rect x="795.4" y="196.6" width="16.5" height="0.5" style="fill:#fff"/><rect x="765.5" y="199.4" width="16.4" height="0.5" style="fill:#fff"/><rect x="795.4" y="199.4" width="16.5" height="0.5" style="fill:#fff"/><polyline points="773.5 180.8 773.5 221.3 803.8 221.3 803.8 183.8" style="fill:none;stroke:#fff;stroke-miterlimit:10;stroke-width:0.5px"/><path d="M801.7,195.9H788.2v32.2s13.2.2,13.4,0V192.6h16.6v51.8H771.3" transform="translate(-6.3 -14.8)" style="fill:none;stroke:#fff;stroke-miterlimit:10;stroke-width:0.5px"/><path d="M270.4,263.3H6.3V115.1a22.37,22.37,0,0,1,6.2-15.5L28.6,82.8a16.48,16.48,0,0,0,4.5-11.3V29.3A11.39,11.39,0,0,1,44.5,17.9H156.7v3H44.6a8.39,8.39,0,0,0-8.4,8.4V71.5a19.16,19.16,0,0,1-5.4,13.4L14.7,101.7a19.16,19.16,0,0,0-5.4,13.4V260.3H267.4V248.5h3v14.8Z" transform="translate(-6.3 -14.8)" style="fill:#fff"/><polyline points="817.5 179.8 823.6 179.8 823.6 128.3" style="fill:none;stroke:#fff;stroke-miterlimit:10"/><path d="M157.3,15.3H833.6V143.1H823.3V26.2H307V21.8H157.3C157.3,21.9,157.4,15.2,157.3,15.3Z" transform="translate(-6.3 -14.8)" style="fill:none;stroke:#fff;stroke-miterlimit:10"/><polyline points="300.8 8.5 819.9 8.5 819.9 83.6" style="fill:none;stroke:#fff;stroke-miterlimit:10"/><polyline points="819.2 128.1 819.2 9.4 300.8 9.4" style="fill:none;stroke:#fff;stroke-miterlimit:10"/><line x1="822.7" y1="128.2" x2="822.7" y2="84.3" style="fill:none"/><polyline points="142.2 18.7 142.2 17 39.5 17 39.5 18.5 37.9 18.5 37.9 71.4 39.3 71.4" style="fill:none;stroke:#fff;stroke-miterlimit:10"/><line x1="827.3" y1="62.5" x2="817" y2="62.5" style="fill:none"/><line x1="827.3" y1="73.4" x2="817" y2="73.4" style="fill:none"/><line x1="827.3" y1="84.3" x2="817" y2="84.3" style="fill:none"/><line x1="827.3" y1="95.1" x2="817" y2="95.1" style="fill:none"/><line x1="827.3" y1="106.1" x2="817" y2="106.1" style="fill:none"/><line x1="827.3" y1="116.9" x2="817" y2="116.9" style="fill:none"/><polygon id="_1ოთახი" data-name="1ოთახი" points="102.8 18.6 102.8 177.3 13 177.3 13 100.4 39.2 100.4 39.2 18.6 102.8 18.6" style="fill:#464646"/><polyline points="822.6 128.6 822.6 137.9 821.4 137.9 821.4 139.1 822.8 139.1 822.8 144.5 821.5 144.5 821.5 145.7 822.8 145.7 822.8 149.8 821.5 149.8 821.5 151 822.8 151 822.8 156.4 821.5 156.4 821.5 157.6 822.6 157.6 822.6 161.8 821.6 161.8 821.6 163.1 822.7 163.1 822.7 168.3 821.5 168.3 821.5 169.6 822.7 169.6 822.7 179.2" style="fill:#fff"/><path d="M830.3,176.4h1a29.87,29.87,0,0,1,0,8.3h-1" transform="translate(-6.3 -14.8)" style="fill:#fff"/><path d="M830.3,164.5h1a29.87,29.87,0,0,1,0,8.3h-1" transform="translate(-6.3 -14.8)" style="fill:#fff"/><path d="M830.3,152.5h1a29.87,29.87,0,0,1,0,8.3h-1" transform="translate(-6.3 -14.8)" style="fill:#fff"/><path d="M268.1,191.8v-1.5H249.8v-7.9s-6.8-.4-8.1,8.3c.4-3.4-3-8.4-7.9-8.3v8.1H197.3v-8.1s-6.9-.2-8.2,7.9c-.1-2.9-2.5-8.2-8.2-7.9v8H144.3v-8s-7.1.1-8.1,8.2c-.1-3.5-2.1-8.1-8-8.2v8.1H109.7V175.6h8.4s.2-6.9-8.1-8.2c3,.2,7.6-1.9,8.1-8.1h-8.3V144.2h18.4v8.2s7.1.8,8-8.2a7.77,7.77,0,0,0,8.1,8.1v-7.9h36.4v8.1s7.3.6,8.3-8.2c-.4,5.9,5.2,8.4,8.1,8.2v-8.2h36.4v8s6.8.7,8.2-7.9a8.15,8.15,0,0,0,7.9,8.1v-8.3h36.3v8.3s7.1.5,8.1-8.1c-.1,2.8,2.4,8.4,8.3,8v-8.1H336v8.1s7.4.9,8.4-8.1c-.4,3.5,3.2,8.6,8,8.2v-8.2h32.1v8.2s7.1.4,8-8.2c-.1,3.1,2.6,8.5,8.1,8.3v-8.2h32.9v8.2s7.6.2,8.1-8.3a8.09,8.09,0,0,0,8.2,8.2c0-1.5-.7-8.2,0-8.2h33.8v8.2s7.2.5,8.2-8.1c.1,2.7,1.8,8.1,8.2,8.2v-8.2h34.1s-.3,8.6,0,8.3,7.4-.6,8.1-8.4c-.1,3.9,3.6,8.4,8,8.2v-8.2H585v8.2s7,.2,8.1-8.1a8.15,8.15,0,0,0,8,8.1v-8.2h34.2v8.1a8.16,8.16,0,0,0,8.3-8.2c0,2.9,2.4,8.2,8.1,8.2v-8.2h34.2v8.2s7.1-.2,8.1-8.1c-.1,2.3,2,8.6,8.2,8v-8.2h34.3v8.2s7,.1,7.9-8.1c-.1,2.5,2.6,8.3,8.2,8V144h34.3v8.4s6.8.2,8-8.2a8,8,0,0,0,8,8.1v-8.1H820V143" transform="translate(-6.3 -14.8)" style="fill:none;stroke:#fff;stroke-miterlimit:10"/><path d="M400.1,191.8v-1.4h33.6v-7.9s7.2-.4,8.1,7.9c0-3.2,1.8-7.5,8.2-8v8.1h34v-8.1a8.09,8.09,0,0,1,8,8.2c-.1-2.9,1.7-7.7,8.3-8.2v8.3h34.1v-8.3s7.7.2,8,8.2c.1-4.2,3.6-8.5,8.2-8.1v8.1h34.2v-8.2s7.7.1,8.1,8.2a7.93,7.93,0,0,1,8.1-8.2v8.1h34.1v-8.1s6.8-.9,8.4,8.2c-.1-4.2,3.2-7.8,8.1-8.2v8.2h34.1v-8s7.6-.1,8.1,8.2c-.1-4.3,3.2-8.1,8.4-8.2v8.1H719v1.1" transform="translate(-6.3 -14.8)" style="fill:none;stroke:#fff;stroke-miterlimit:10"/><path d="M721.8,193.8V184s7.8.3,8.5,9a8.71,8.71,0,0,1,8.9-8.8v9.6" transform="translate(-6.3 -14.8)" style="fill:none;stroke:#fff;stroke-miterlimit:10"/><path d="M40.6,193.6v-7.8a7.42,7.42,0,0,1,6.9,6.8c-.2-3.8,3.4-6.6,6.8-6.6v7.5" transform="translate(-6.3 -14.8)" style="fill:none;stroke:#fff;stroke-miterlimit:10"/><path d="M89.5,204.6H82.3s-.9-5.8,7.3-7.2" transform="translate(-6.3 -14.8)" style="fill:none;stroke:#fff;stroke-miterlimit:10"/><path d="M106,194v6.7s-5.6.7-7.2-6.8" transform="translate(-6.3 -14.8)" style="fill:none;stroke:#fff;stroke-miterlimit:10"/><path d="M89.5,214.5H82.1s-.2-6.5,7.4-7.1" transform="translate(-6.3 -14.8)" style="fill:none;stroke:#fff;stroke-miterlimit:10"/><path d="M23.9,113.6v-7.9s7,.6,7.7,7.7c0-2.7,3-7.4,8.2-7.6v7.8" transform="translate(-6.3 -14.8)" style="fill:none;stroke:#fff;stroke-miterlimit:10"/><path d="M745.3,196.5h7s-.2,6.4-7.2,6.1" transform="translate(-6.3 -14.8)" style="fill:none;stroke:#fff;stroke-miterlimit:10"/><path d="M744.9,213.3h7.2s.6-5.5-6.9-6.2" transform="translate(-6.3 -14.8)" style="fill:none;stroke:#fff;stroke-miterlimit:10"/><rect x="102.5" y="21.9" width="2" height="49.2" style="fill:#fff"/><rect x="102.5" y="75.3" width="2" height="49.2" style="fill:#fff"/><rect x="67.2" y="180.9" width="2" height="49.2" style="fill:#fff"/><rect x="101.7" y="180.9" width="2" height="49.2" style="fill:#fff"/><rect x="261.8" y="180.9" width="2" height="49.2" style="fill:#fff"/><rect x="392.5" y="177" width="2" height="56.6" style="fill:#fff"/><rect x="560.5" y="180.8" width="2" height="49.4" style="fill:#fff"/><rect x="710.8" y="180.8" width="2" height="49.4" style="fill:#fff"/><rect x="763.2" y="180.8" width="2" height="49.4" style="fill:#fff"/><rect x="737.9" y="198.7" width="2" height="14.1" style="fill:#fff"/><rect x="737.9" y="187.9" width="2" height="4.5" style="fill:#fff"/><rect x="737.9" y="178.1" width="2" height="3.4" style="fill:#fff"/><rect x="733.03" y="177.96" width="28.7" height="2" style="fill:#fff"/><rect x="15.44" y="177.05" width="13.7" height="2" style="fill:#fff"/><rect x="33.57" y="98.82" width="7.6" height="2" style="fill:#fff"/><rect x="15.53" y="98.86" width="2.1" height="2" style="fill:#fff"/><rect x="11.6" y="166.4" width="2" height="10.7" style="fill:#fff"/><rect x="11.6" y="128.4" width="2" height="10.5" style="fill:#fff"/><rect x="11.6" y="102.7" width="2" height="3.3" style="fill:#fff"/><rect x="53.09" y="177.1" width="12.3" height="2" style="fill:#fff"/><rect x="99.75" y="177.19" width="2" height="2" style="fill:#fff"/><rect x="101.86" y="175.67" width="2" height="1.4" style="fill:#fff"/><rect x="739.74" y="189.79" width="23.4" height="1.6" style="fill:#fff"/><rect x="155.5" y="21.9" width="2" height="49.2" style="fill:#fff"/><rect x="155.5" y="75.3" width="2" height="49.2" style="fill:#fff"/><rect x="208" y="21.9" width="2" height="49.2" style="fill:#fff"/><rect x="208" y="75.3" width="2" height="49.2" style="fill:#fff"/><rect x="260.8" y="21.9" width="2" height="49.2" style="fill:#fff"/><rect x="260.8" y="75.3" width="2" height="49.2" style="fill:#fff"/><rect x="313.2" y="21.9" width="2" height="49.2" style="fill:#fff"/><rect x="313.2" y="75.3" width="2" height="49.2" style="fill:#fff"/><rect x="361.3" y="21.9" width="2" height="49.2" style="fill:#fff"/><rect x="361.3" y="75.3" width="2" height="49.2" style="fill:#fff"/><rect x="409.5" y="21.9" width="2" height="49.2" style="fill:#fff"/><rect x="409.5" y="75.3" width="2" height="49.2" style="fill:#fff"/><rect x="459.7" y="21.9" width="2" height="49.2" style="fill:#fff"/><rect x="459.7" y="75.3" width="2" height="49.2" style="fill:#fff"/><rect x="509.8" y="21.9" width="2" height="49.2" style="fill:#fff"/><rect x="509.8" y="75.3" width="2" height="49.2" style="fill:#fff"/><rect x="560.5" y="21.9" width="2" height="49.2" style="fill:#fff"/><rect x="560.5" y="75.3" width="2" height="49.2" style="fill:#fff"/><rect x="611" y="21.9" width="2" height="49.2" style="fill:#fff"/><rect x="611" y="75.3" width="2" height="49.2" style="fill:#fff"/><rect x="661.5" y="21.9" width="2" height="49.2" style="fill:#fff"/><rect x="661.5" y="75.3" width="2" height="49.2" style="fill:#fff"/><rect x="711.8" y="21.9" width="2" height="49.2" style="fill:#fff"/><rect x="711.8" y="75.3" width="2" height="49.2" style="fill:#fff"/><rect x="762.5" y="21.9" width="2" height="49.2" style="fill:#fff"/><rect x="762.5" y="75.3" width="2" height="49.2" style="fill:#fff"/><rect x="11.7" y="99" width="3.9" height="3.8" style="fill:#fff"/><rect x="11.7" y="177.1" width="3.9" height="3.8" style="fill:#fff"/><rect x="65.4" y="177" width="3.9" height="3.8" style="fill:#fff"/><rect x="101.7" y="177" width="3.9" height="3.8" style="fill:#fff"/><rect x="101.7" y="124.5" width="3.9" height="3.8" style="fill:#fff"/><rect x="101.7" y="71.4" width="3.9" height="3.8" style="fill:#fff"/><rect x="154.7" y="177" width="3.9" height="3.8" style="fill:#fff"/><rect x="154.7" y="124.5" width="3.9" height="3.8" style="fill:#fff"/><rect x="154.7" y="71.4" width="3.9" height="3.8" style="fill:#fff"/><rect x="207.2" y="177" width="3.9" height="3.8" style="fill:#fff"/><rect x="207.2" y="124.5" width="3.9" height="3.8" style="fill:#fff"/><rect x="207.2" y="71.4" width="3.9" height="3.8" style="fill:#fff"/><rect x="259.9" y="177" width="3.9" height="3.8" style="fill:#fff"/><rect x="259.9" y="124.5" width="3.9" height="3.8" style="fill:#fff"/><rect x="259.9" y="71.4" width="3.9" height="3.8" style="fill:#fff"/><rect x="312.2" y="177" width="3.9" height="3.8" style="fill:#fff"/><rect x="312.2" y="124.5" width="3.9" height="3.8" style="fill:#fff"/><rect x="312.2" y="71.4" width="3.9" height="3.8" style="fill:#fff"/><rect x="360.7" y="177" width="3.9" height="3.8" style="fill:#fff"/><rect x="360.7" y="124.5" width="3.9" height="3.8" style="fill:#fff"/><rect x="360.7" y="71.4" width="3.9" height="3.8" style="fill:#fff"/><rect x="408.7" y="177" width="3.9" height="3.8" style="fill:#fff"/><rect x="408.7" y="124.5" width="3.9" height="3.8" style="fill:#fff"/><rect x="408.7" y="71.4" width="3.9" height="3.8" style="fill:#fff"/><rect x="458.9" y="177" width="3.9" height="3.8" style="fill:#fff"/><rect x="458.9" y="124.5" width="3.9" height="3.8" style="fill:#fff"/><rect x="458.9" y="71.4" width="3.9" height="3.8" style="fill:#fff"/><rect x="509.2" y="177" width="3.9" height="3.8" style="fill:#fff"/><rect x="509.2" y="124.5" width="3.9" height="3.8" style="fill:#fff"/><rect x="509.2" y="71.4" width="3.9" height="3.8" style="fill:#fff"/><rect x="559.7" y="177" width="3.9" height="3.8" style="fill:#fff"/><rect x="559.7" y="124.5" width="3.9" height="3.8" style="fill:#fff"/><rect x="559.7" y="71.4" width="3.9" height="3.8" style="fill:#fff"/><rect x="610.4" y="177" width="3.9" height="3.8" style="fill:#fff"/><rect x="610.4" y="124.5" width="3.9" height="3.8" style="fill:#fff"/><rect x="610.4" y="71.4" width="3.9" height="3.8" style="fill:#fff"/><rect x="660.7" y="177" width="3.9" height="3.8" style="fill:#fff"/><rect x="660.7" y="124.5" width="3.9" height="3.8" style="fill:#fff"/><rect x="660.7" y="71.4" width="3.9" height="3.8" style="fill:#fff"/><rect x="710.7" y="124.5" width="3.9" height="3.8" style="fill:#fff"/><rect x="710.7" y="71.4" width="3.9" height="3.8" style="fill:#fff"/><rect x="761.7" y="177" width="3.9" height="3.8" style="fill:#fff"/><rect x="761.7" y="124.5" width="3.9" height="3.8" style="fill:#fff"/><rect x="761.7" y="71.4" width="3.9" height="3.8" style="fill:#fff"/><rect x="811.9" y="177" width="3.9" height="3.8" style="fill:#fff"/><rect x="811.9" y="124.5" width="3.9" height="3.8" style="fill:#fff"/><rect x="811.9" y="71.4" width="3.9" height="3.8" style="fill:#fff"/><rect x="39.3" y="71.4" width="3.9" height="3.8" style="fill:#fff"/><rect x="11.7" y="124.6" width="3.9" height="3.8" style="fill:#fff"/><rect x="65.4" y="124.5" width="3.9" height="3.8" style="fill:#fff"/><path d="M75.2,196.2H89.6s-.2,49.2,0,49.2H75.2" transform="translate(-6.3 -14.8)" style="fill:none;stroke:#fff;stroke-miterlimit:10;stroke-width:0.5px"/><line x1="83.3" y1="191.3" x2="68.9" y2="191.3" style="fill:none;stroke:#fff;stroke-miterlimit:10;stroke-width:0.5px"/><path d="M80.6,201.6c0,.8-.9,1.5-2,1.5a2,2,0,0,1-1.1-.3,1.54,1.54,0,0,1-.9-1.3,1.48,1.48,0,0,1,.9-1.3,2,2,0,0,1,1.1-.3A2,2,0,0,1,80.6,201.6Z" transform="translate(-6.3 -14.8)" style="fill:none;stroke:#fff;stroke-miterlimit:10;stroke-width:0.5px"/><path d="M76.6,201.6a1.48,1.48,0,0,0,.9,1.3v.1H75.6v-2.7h1.9v.1A1.29,1.29,0,0,0,76.6,201.6Z" transform="translate(-6.3 -14.8)" style="fill:none;stroke:#fff;stroke-miterlimit:10;stroke-width:0.5px"/><path d="M80.6,211.4c0,.8-.9,1.5-2,1.5a2,2,0,0,1-1.1-.3,1.54,1.54,0,0,1-.9-1.3,1.48,1.48,0,0,1,.9-1.3,2,2,0,0,1,1.1-.3C79.7,209.9,80.6,210.6,80.6,211.4Z" transform="translate(-6.3 -14.8)" style="fill:none;stroke:#fff;stroke-miterlimit:10;stroke-width:0.5px"/><path d="M106,216.8c-.8,0-1.5-.9-1.5-2a2,2,0,0,1,.3-1.1,1.54,1.54,0,0,1,1.3-.9,1.48,1.48,0,0,1,1.3.9,2,2,0,0,1,.3,1.1C107.5,215.9,106.8,216.8,106,216.8Z" transform="translate(-6.3 -14.8)" style="fill:none;stroke:#fff;stroke-miterlimit:10;stroke-width:0.5px"/><path d="M76.6,211.4a1.48,1.48,0,0,0,.9,1.3v.1H75.6v-2.7h1.9v.1A1.4,1.4,0,0,0,76.6,211.4Z" transform="translate(-6.3 -14.8)" style="fill:none;stroke:#fff;stroke-miterlimit:10;stroke-width:0.5px"/><path d="M764.1,213.8c0,.8,1,1.5,2.1,1.5a2.37,2.37,0,0,0,1.2-.3,1.38,1.38,0,0,0,.9-1.3,1.68,1.68,0,0,0-.9-1.3,2.38,2.38,0,0,0-1.2-.3C765.1,212.3,764.1,212.9,764.1,213.8Z" transform="translate(-6.3 -14.8)" style="fill:none;stroke:#fff;stroke-miterlimit:10;stroke-width:0.5px"/><path d="M768.4,213.8a1.68,1.68,0,0,1-.9,1.3v.1h2.1v-2.7h-2.1v.1A1.4,1.4,0,0,1,768.4,213.8Z" transform="translate(-6.3 -14.8)" style="fill:none;stroke:#fff;stroke-miterlimit:10;stroke-width:0.5px"/><path d="M764.1,200.6c0,.8,1,1.5,2.1,1.5a2.37,2.37,0,0,0,1.2-.3,1.38,1.38,0,0,0,.9-1.3,1.68,1.68,0,0,0-.9-1.3,2.38,2.38,0,0,0-1.2-.3C765.1,199.1,764.1,199.8,764.1,200.6Z" transform="translate(-6.3 -14.8)" style="fill:none;stroke:#fff;stroke-miterlimit:10;stroke-width:0.5px"/><path d="M768.4,200.6a1.68,1.68,0,0,1-.9,1.3v.1h2.1v-2.7h-2.1v.1A1.4,1.4,0,0,1,768.4,200.6Z" transform="translate(-6.3 -14.8)" style="fill:none;stroke:#fff;stroke-miterlimit:10;stroke-width:0.5px"/><path d="M756.2,199.5a2,2,0,0,1-1.8-1.2h0v-3h.2v3a1.83,1.83,0,0,0,1.5,1h2.5s1.2-.1,1.2-1.1v-2.9h.2v2.9a1.5,1.5,0,0,1-1.5,1.4h-2.3Z" transform="translate(-6.3 -14.8)" style="fill:#fff"/><path d="M756.4,199a1.59,1.59,0,0,1-1.4-.8h0v-1.9h.2v1.9a1.43,1.43,0,0,0,1.2.6h2s.9,0,.9-.7v-1.9h.2v1.9c0,.7-.8.9-1.2.9Z" transform="translate(-6.3 -14.8)" style="fill:#fff"/><circle cx="750.9" cy="181.3" r="0.4" style="fill:#fff"/><path d="M757.2,196.8c.1.1.1.2.1.4a.76.76,0,0,1-.1.4c-.1-.1-.1-.2-.1-.4A.6.6,0,0,1,757.2,196.8Z" transform="translate(-6.3 -14.8)" style="fill:#fff"/><path d="M757.3,214a2,2,0,0,0-1.8,1.2h0v3.1h.2v-3.1a1.71,1.71,0,0,1,1.5-1.1h2.5s1.2.1,1.2,1.2v3h.2v-3a1.42,1.42,0,0,0-1.5-1.4h-2.3Z" transform="translate(-6.3 -14.8)" style="fill:#fff"/><path d="M757.5,214.6a1.59,1.59,0,0,0-1.4.8v2.1h.2v-2a1.43,1.43,0,0,1,1.2-.6h2s.9,0,.9.7v1.9h.2v-1.9c0-.7-.8-.9-1.2-1Z" transform="translate(-6.3 -14.8)" style="fill:#fff"/><circle cx="752" cy="202.7" r="0.4" style="fill:#fff"/><path d="M758.3,216.8a.85.85,0,1,0-.1-.4C758.1,216.5,758.2,216.6,758.3,216.8Z" transform="translate(-6.3 -14.8)" style="fill:#fff"/><path d="M107.7,142.5h2.5V193h-1.9C108.2,193,107.7,142.8,107.7,142.5Z" transform="translate(-6.3 -14.8)" style="fill:none;stroke:#383838;stroke-miterlimit:10"/><rect x="104.4" y="177.2" width="158.9" height="1" style="fill:none;stroke:#383838;stroke-miterlimit:10"/><rect x="394.7" y="177.1" width="166.7" height="1.1" style="fill:none;stroke:#383838;stroke-miterlimit:10"/><rect x="562.1" y="176.9" width="149.5" height="1.3" style="fill:#383838"/><rect x="815.2" y="127.7" width="1.8" height="50.5" style="fill:none;stroke:#383838;stroke-miterlimit:10"/><line x1="815.8" y1="128.3" x2="815.8" y2="177" style="fill:none;stroke:#fff;stroke-miterlimit:10"/><line x1="817.4" y1="177.1" x2="817.4" y2="128.4" style="fill:none;stroke:#fff;stroke-miterlimit:10"/><rect x="710.7" y="177" width="3.9" height="3.8" style="fill:#fff"/></svg>