<svg id="Layer_1" data-name="Layer 1" xmlns="http://www.w3.org/2000/svg" viewBox="0 0 324.4 231.1"><title>floor-3</title><g id="_3_სართული" data-name="3 სართული"><g id="_1ოთახი" data-name="1ოთახი"><rect x="4.5" y="4.1" width="102.5" height="67.1" style="fill:#464646"/></g><g id="_6ოთახი" data-name="6ოთახი"><rect x="4.1" y="118.8" width="103" height="108.1" style="fill:#464646"/></g><g id="_7ოთახი" data-name="7ოთახი"><rect x="112.9" y="118.8" width="103" height="108.1" style="fill:#464646"/></g><g id="_8ოთახი" data-name="8ოთახი"><rect x="220.5" y="118.8" width="103" height="108.1" style="fill:#464646"/></g><g id="_4ოთახი" data-name="4ოთახი"><rect x="4.5" y="74.8" width="91.7" height="40.5" style="fill:#464646"/></g><g id="_5ოთახი" data-name="5ოთახი"><polygon points="320.5 74.8 320.5 115.4 313.2 115.4 313.2 119 217.4 119 217.4 115.4 99.7 115.4 99.7 74.8 320.5 74.8" style="fill:#464646"/></g><g id="_2ოთახი" data-name="2ოთახი"><rect x="110.5" y="4.1" width="100.2" height="67.1" style="fill:#464646"/></g><g id="_3ოთახი" data-name="3ოთახი"><rect x="213.7" y="3.9" width="106.8" height="67.4" style="fill:#464646"/></g><rect x="218.6" y="117.9" width="33.9" height="1" style="fill:#fff"/><rect x="280.5" y="117.9" width="34.1" height="1" style="fill:#fff"/><rect x="218.6" y="123.4" width="33.9" height="1" style="fill:#fff"/><rect x="280.5" y="123.4" width="34.1" height="1" style="fill:#fff"/><rect x="218.6" y="128.7" width="33.9" height="1" style="fill:#fff"/><rect x="280.5" y="128.7" width="34.1" height="1" style="fill:#fff"/><rect x="218.6" y="134.1" width="33.9" height="1" style="fill:#fff"/><rect x="280.5" y="134.1" width="34.1" height="1" style="fill:#fff"/><rect x="218.6" y="139.6" width="33.9" height="1" style="fill:#fff"/><rect x="280.5" y="139.6" width="34.1" height="1" style="fill:#fff"/><rect x="218.6" y="145.7" width="33.9" height="1" style="fill:#fff"/><rect x="280.5" y="145.7" width="34.1" height="1" style="fill:#fff"/><rect x="218.6" y="151.2" width="33.9" height="1" style="fill:#fff"/><rect x="280.5" y="151.2" width="34.1" height="1" style="fill:#fff"/><rect x="218.6" y="156.9" width="33.9" height="1" style="fill:#fff"/><rect x="280.5" y="156.9" width="34.1" height="1" style="fill:#fff"/><rect x="218.6" y="162.4" width="33.9" height="1" style="fill:#fff"/><rect x="280.5" y="162.4" width="34.1" height="1" style="fill:#fff"/><rect x="218.6" y="167.9" width="33.9" height="1" style="fill:#fff"/><rect x="280.5" y="167.9" width="34.1" height="1" style="fill:#fff"/><rect x="218.6" y="173.3" width="33.9" height="1" style="fill:#fff"/><rect x="280.5" y="173.3" width="34.1" height="1" style="fill:#fff"/><rect x="218.6" y="179.2" width="33.9" height="1" style="fill:#fff"/><rect x="280.5" y="179.2" width="34.1" height="1" style="fill:#fff"/><rect x="218.6" y="184.7" width="33.9" height="1" style="fill:#fff"/><rect x="280.5" y="184.7" width="34.1" height="1" style="fill:#fff"/><polygon points="298.2 202.8 234.7 202.8 234.7 118.5 235.6 118.5 235.6 201.9 297.4 201.9 297.4 124.5 298.2 124.5 298.2 202.8" style="fill:#fff"/><path d="M329.9,233.1H232.1v-.9H329V125.9H295.6v73.2l-.1.1c-.2.2-.5.5-28.1.1H267V131.6h27.8V125H330V233.1Zm-62.1-34.6c10,.1,24.6.3,26.9.1v-66H267.8Z" transform="translate(-14.8 -13.2)" style="fill:#fff"/><rect x="252.1" y="185.7" width="0.9" height="33.9" style="fill:#fff"/><rect x="257.8" y="185.7" width="0.9" height="33.9" style="fill:#fff"/><rect x="263.4" y="185.7" width="0.9" height="33.9" style="fill:#fff"/><rect x="268.5" y="185.7" width="0.9" height="33.9" style="fill:#fff"/><rect x="274.2" y="185.7" width="0.9" height="33.9" style="fill:#fff"/><rect x="279.8" y="185.7" width="0.9" height="33.9" style="fill:#fff"/><rect x="107" y="11.2" width="3.5" height="63.6" style="fill:#fff"/><rect x="96.2" y="74.8" width="3.5" height="4.2" style="fill:#fff"/><rect x="96.2" y="107.8" width="3.5" height="10.3" style="fill:#fff"/><rect x="210.1" y="11.2" width="3.5" height="63.7" style="fill:#fff"/><rect x="213.8" y="118.4" width="3.5" height="101.3" style="fill:#fff"/><rect x="107.1" y="118.4" width="3.5" height="101.3" style="fill:#fff"/><rect x="236.81" y="71.36" width="84.4" height="3.5" style="fill:#fff"/><rect x="206.07" y="71.32" width="12.6" height="3.5" style="fill:#fff"/><rect x="320.46" y="126.14" width="3.5" height="34" style="fill:#fff"/><rect x="162.46" y="132.95" width="3.5" height="17.3" style="fill:#fff"/><rect x="162.46" y="164.19" width="3.5" height="19.9" style="fill:#fff"/><rect x="162.46" y="207.36" width="3.5" height="19.4" style="fill:#fff"/><rect x="206.6" y="164.43" width="3.5" height="62.3" style="fill:#fff"/><rect x="163.15" y="164.2" width="52.4" height="3.5" style="fill:#fff"/><rect x="163.13" y="223.26" width="47.1" height="3.5" style="fill:#fff"/><rect x="301.13" y="226.77" width="20.1" height="3.5" style="fill:#fff"/><rect x="4.42" y="71.36" width="183.1" height="3.5" style="fill:#fff"/><rect x="11.61" y="115.3" width="111.1" height="3.5" style="fill:#fff"/><rect x="151.98" y="115.37" width="57.9" height="3.5" style="fill:#fff"/><rect x="163.02" y="140.01" width="54.1" height="3.5" style="fill:#fff"/><rect x="4.1" y="4.1" width="7.3" height="7.1" style="fill:#fff"/><rect x="107" y="4.1" width="7.3" height="7.1" style="fill:#fff"/><rect x="210.1" y="4.1" width="7.3" height="7.1" style="fill:#fff"/><rect x="313.2" y="4.1" width="7.3" height="7.1" style="fill:#fff"/><rect x="4.1" y="111.6" width="7.3" height="7.1" style="fill:#fff"/><rect x="107" y="111.6" width="7.3" height="7.1" style="fill:#fff"/><rect x="210.1" y="111.6" width="7.3" height="7.1" style="fill:#fff"/><rect x="313.2" y="111.6" width="7.3" height="7.1" style="fill:#fff"/><rect x="4.1" y="219.8" width="7.3" height="7.1" style="fill:#fff"/><rect x="107" y="219.8" width="7.3" height="7.1" style="fill:#fff"/><rect x="210.1" y="219.8" width="7.3" height="7.1" style="fill:#fff"/><rect x="313.2" y="219.8" width="7.3" height="7.1" style="fill:#fff"/><path d="M339.2,244.3H14.8V13.2H274.3c3.6.1,43.3.1,64.4.1h.4v231Zm-323.5-.9H338.3V14.2c-53.4,0-62.6,0-64.3-.2v.1H15.7Z" transform="translate(-14.8 -13.2)" style="fill:#fff"/><path d="M129.2,121.1H114.5v-.9h13.8a14.44,14.44,0,0,0-4.6-9.8,15.18,15.18,0,0,0-9-3.5l-.1-.9c13.2-1.6,13.8-11.4,13.7-13.5H114.4v-.9h14.7V92c0,.1.8,11.3-11.6,14.4a16.37,16.37,0,0,1,6.6,3.3c3,2.6,4.6,6.2,4.9,10.8Z" transform="translate(-14.8 -13.2)" style="fill:#fff"/><path d="M166.8,128.8H166V115a14.34,14.34,0,0,0-9.9,4.7,12.16,12.16,0,0,0-3.3,8.8l-.9.1c-1.6-12.5-11.2-13.6-13.3-13.7v13.8h-.9V114h.4a14.63,14.63,0,0,1,14,11.4,13.41,13.41,0,0,1,3.3-6.2,15.75,15.75,0,0,1,11-5h.5v14.6Z" transform="translate(-14.8 -13.2)" style="fill:#fff"/><path d="M220.9,87h-1.4V68c-2.7.2-16.2,2.2-15.9,18.6V87h-1.2v-.9h.3c-.1-18.3,17-19.1,17.2-19.1h.4V86.1h.5V87Z" transform="translate(-14.8 -13.2)" style="fill:#fff"/><path d="M251.6,87.1h-.9v-.4c-.5-17.4-13.5-18.7-16.1-18.8V87h-1.2v-.9h.3V67h.4c.2,0,16.6-.1,17.4,19.2h.1Z" transform="translate(-14.8 -13.2)" style="fill:#fff"/><path d="M179.1,177.4h-.9v-1.3h14.4a13.13,13.13,0,0,0-3.7-8.1c-2.4-2.4-5.9-3.5-10.4-3.4h-.4v-1.1h.9v.2h.1c4.4,0,7.9,1.2,10.4,3.7a13.42,13.42,0,0,1,3.9,9.1v.4H179v.5Z" transform="translate(-14.8 -13.2)" style="fill:#fff"/><path d="M181.2,146.1h-.9v-1.2h.5c.4,0,10.6.3,11.9-11.5H180.4v-1.5h.9v.6h12.4v.5c-1,11.6-10.3,12.7-12.4,12.8v.3Z" transform="translate(-14.8 -13.2)" style="fill:#fff"/><polygon points="162.3 168.4 151.6 168.4 151.6 118.8 152.5 118.8 152.5 167.5 162.3 167.5 162.3 168.4" style="fill:#fff"/><rect x="152.4" y="139.9" width="9.8" height="0.9" style="fill:#fff"/><rect x="152.2" y="142.7" width="10" height="0.9" style="fill:#fff"/><rect x="152.2" y="164" width="10" height="0.9" style="fill:#fff"/><rect x="320.4" y="160.1" width="3.5" height="70.1" style="fill:#fff"/><rect x="320.46" y="111.57" width="3.5" height="14.9" style="fill:#fff"/><rect x="320.46" y="85.95" width="3.5" height="14.7" style="fill:#fff"/><rect x="259.23" y="0.38" width="62" height="3.5" style="fill:#fff"/><rect x="320.4" y="0.6" width="3.5" height="75.3" style="fill:#fff"/><path d="M217.9,168.8c0,1.7,1.9,3,4.3,3a6,6,0,0,0,2.4-.5,3,3,0,0,0,1.9-2.5,2.88,2.88,0,0,0-1.9-2.5,6,6,0,0,0-2.4-.5C219.8,165.7,217.9,167.1,217.9,168.8Z" transform="translate(-14.8 -13.2)" style="fill:none;stroke:#fff;stroke-miterlimit:10;stroke-width:0.5px"/><path d="M226.5,168.8a2.88,2.88,0,0,1-1.9,2.5v.1h4.2v-5.3h-4.1v.2A2.94,2.94,0,0,1,226.5,168.8Z" transform="translate(-14.8 -13.2)" style="fill:none;stroke:#fff;stroke-miterlimit:10;stroke-width:0.5px"/><path d="M217.9,142.5c0,1.7,1.9,3,4.3,3a6,6,0,0,0,2.4-.5,3,3,0,0,0,1.9-2.5,2.88,2.88,0,0,0-1.9-2.5,6,6,0,0,0-2.4-.5C219.8,139.5,217.9,140.9,217.9,142.5Z" transform="translate(-14.8 -13.2)" style="fill:none;stroke:#fff;stroke-miterlimit:10;stroke-width:0.5px"/><path d="M226.5,142.5a2.88,2.88,0,0,1-1.9,2.5v.1h4.2v-5.3h-4.1v.2A3.21,3.21,0,0,1,226.5,142.5Z" transform="translate(-14.8 -13.2)" style="fill:none;stroke:#fff;stroke-miterlimit:10;stroke-width:0.5px"/><path d="M205.3,140.4a3.86,3.86,0,0,1-3.5-2.4v-6.1h.5v5.9a3.18,3.18,0,0,0,3,2h5c.1,0,2.5-.1,2.5-2.2v-5.7h.5v5.7a2.78,2.78,0,0,1-3,2.7h-5Z" transform="translate(-14.8 -13.2)" style="fill:#fff"/><path d="M205.8,139.3a2.84,2.84,0,0,1-2.8-1.6v-4h.5v3.8a2.46,2.46,0,0,0,2.3,1.3h3.9c.1,0,1.9-.1,1.9-1.4v-3.7h.5v3.7c0,1.4-1.5,1.8-2.4,1.9h-3.9Z" transform="translate(-14.8 -13.2)" style="fill:#fff"/><circle cx="192.4" cy="120.4" r="0.8" style="fill:#fff"/><path d="M207.2,135a1.32,1.32,0,1,1-.2.7A1.08,1.08,0,0,1,207.2,135Z" transform="translate(-14.8 -13.2)" style="fill:#fff"/><path d="M207.5,169.2a3.75,3.75,0,0,0-3.5,2.5v6.2h.5v-6.1a3.23,3.23,0,0,1,3-2.1h5c.1,0,2.5.1,2.5,2.3v5.9h.5V172a2.86,2.86,0,0,0-3-2.8Z" transform="translate(-14.8 -13.2)" style="fill:#fff"/><path d="M208,170.3a3,3,0,0,0-2.8,1.6V176h.5v-3.9a2.46,2.46,0,0,1,2.3-1.3h3.9c.1,0,1.9.1,1.9,1.4V176h.5v-3.8c0-1.4-1.5-1.9-2.4-1.9H208Z" transform="translate(-14.8 -13.2)" style="fill:#fff"/><circle cx="194.6" cy="163" r="0.8" style="fill:#fff"/><path d="M209.4,174.7a1.7,1.7,0,1,0-.2-.8A1.08,1.08,0,0,0,209.4,174.7Z" transform="translate(-14.8 -13.2)" style="fill:#fff"/></g></svg>