<svg xmlns="http://www.w3.org/2000/svg" viewBox="0 0 55.59 60.63"><title>Asset 1</title><g id="Layer_2" data-name="Layer 2"><g id="ფონი"><path d="M27.79,30.3a93.6,93.6,0,0,0-5.65-12.43l-.33-.58c-1.62-2.75-3.4-5.13-5.13-6.13l0,0a11.13,11.13,0,0,0-11,19.32l.28.15h0a4.6,4.6,0,0,0,.53.22L6.9,31l.49.15.52.13.9.17.42.07.82.1.48,0,.24,0,.9.05h.15l.54,0c.85,0,1.73,0,2.62,0h.07l.47,0h.27l.48,0h.14l.49,0,1.26-.09h.09l.84-.07.92-.09.89-.09.58-.07c2.65-.31,4.82-.67,5.78-.84l.49-.09h0ZM5.38,17.53A7.79,7.79,0,0,1,16,14.62a11.8,11.8,0,0,1,3.46,4.05l.35.6a65.32,65.32,0,0,1,4,8.77s-11.8,2.23-15.53.1A7.79,7.79,0,0,1,5.38,17.53Z" style="fill:#464646;fill-rule:evenodd"/><path d="M38.9,10.55h0a11.12,11.12,0,0,0-22.23.58v0c0,2,1.2,4.74,2.8,7.51l.35.6a92.55,92.55,0,0,0,8,11h0A101,101,0,0,0,34,22.1a29.32,29.32,0,0,1,3.74-6.52,11.65,11.65,0,0,0,1.2-4.45C38.92,10.93,38.91,10.74,38.9,10.55Zm-7.3,10.2c-1.92,2.76-3.8,5-3.8,5a65,65,0,0,1-5.66-7.86l-.33-.58a11.73,11.73,0,0,1-1.79-5,7.78,7.78,0,1,1,15.57,0,6.07,6.07,0,0,1-.37,1.9A28.73,28.73,0,0,1,31.6,20.75Z" style="fill:#464646;fill-rule:evenodd"/><path d="M53.71,14.55a11.13,11.13,0,0,0-14.81-4h0l-.48.27a11.67,11.67,0,0,0-3.21,3.38,46.3,46.3,0,0,0-3.61,6.55,100.31,100.31,0,0,0-3.8,9.54h0c.63.1,16.42,2.58,21.87-.3l.29-.16A11.13,11.13,0,0,0,53.71,14.55Zm-6.47,13c-3.68,2.24-15.53.32-15.53.32s.91-2.75,2.27-5.82a29.32,29.32,0,0,1,3.74-6.52,6.25,6.25,0,0,1,1.44-1.29,7.79,7.79,0,1,1,8.09,13.31Z" style="fill:#464646;fill-rule:evenodd"/><path d="M50,30.15,49.69,30c-5.51-2.72-21.19.17-21.87.3h0v0h0A93.83,93.83,0,0,0,33.4,42.66l.22.38c1.66,2.87,3.51,5.38,5.3,6.42l0,0A11.12,11.12,0,0,0,50,30.15Zm.23,12.94A7.78,7.78,0,0,1,39.59,46,12.26,12.26,0,0,1,36,41.66l-.07-.12a64.68,64.68,0,0,1-4.11-9s11.8-2.23,15.54-.1A7.79,7.79,0,0,1,50.21,43.09Z" style="fill:#464646;fill-rule:evenodd"/><path d="M36,41.66l-.07-.12a91.45,91.45,0,0,0-8.07-11.19h0l0,0h0a97.39,97.39,0,0,0-6.19,8.23A29.18,29.18,0,0,1,17.9,45a11.76,11.76,0,0,0-1.22,4.5q0,.28,0,.56a11.12,11.12,0,0,0,22.23-.56v-.05C38.9,47.38,37.63,44.53,36,41.66ZM27.8,56.12A7.78,7.78,0,0,1,20,48.34a6.31,6.31,0,0,1,.37-1.94A29.09,29.09,0,0,1,24,39.9c1.92-2.77,3.82-5,3.82-5a65.72,65.72,0,0,1,5.6,7.76l.22.38a12.3,12.3,0,0,1,2,5.3A7.78,7.78,0,0,1,27.8,56.12Z" style="fill:#464646;fill-rule:evenodd"/><path d="M27.79,30.33h0l-.28,0-.16,0-.56-.08-.23,0c-3.25-.45-12.11-1.5-17.68-.46h0l-.35.07h0a10,10,0,0,0-2.58.86h0a2.54,2.54,0,0,0-.3.16A11.12,11.12,0,0,0,16.69,50.07l.47-.27a11.81,11.81,0,0,0,3.22-3.4A45.92,45.92,0,0,0,24,39.9a97.39,97.39,0,0,0,3.82-9.57h0ZM17.9,45a6.21,6.21,0,0,1-1.46,1.33A7.79,7.79,0,0,1,8.35,33c3.68-2.23,15.53-.32,15.53-.32s-.92,2.78-2.29,5.86A29.18,29.18,0,0,1,17.9,45Z" style="fill:#464646;fill-rule:evenodd"/><path d="M27.25,30.41c-2.13-.32-12-1.68-18.19-.63a13.52,13.52,0,0,0-2.33.58h0a7,7,0,0,0-.68.27H6l.43.19L6.9,31l.49.15.52.13.9.17.42.07.82.1.48,0,.24,0,.9.05h.15l.54,0c.85,0,1.73,0,2.62,0h.07l.47,0h.27l.48,0h.14l.49,0,1.26-.09h.09l.84-.07.92-.09.89-.09.58-.07c2.13-.24,4-.52,5.09-.71l.72-.13Z" style="fill:#464646;fill-rule:evenodd"/><path d="M27.75,30.33h0l-.25,0-.16,0-.56-.08-.23,0c-3.61-.55-12.36-1.67-17.7-.47l-.33.08h0a9.25,9.25,0,0,0-1.77.61h0l-.36.18a8.26,8.26,0,0,0,1.44.55l1,.24a29.59,29.59,0,0,0,6.19.41h.07l.47,0h.27l.48,0h.14a90,90,0,0,0,10.15-1.15l1.22-.21Z" style="fill:#464646;fill-rule:evenodd"/><path d="M5.89,30.61s2.15.58,2.9.74,1.64-.81,1.64-.84-1.92-1-1.92-1l-2.7.18Z" style="fill:#464646;fill-rule:evenodd"/></g></g></svg>